ISO-10303-21;
HEADER;
/*Generated by software containing ST-Developer
 * from STEP Tools, Inc. (www.steptools.com) 
 */
/*OPTION: using custom renumber hook */
/*description */
/*implementation_level */
FILE_DESCRIPTION(('STEP AP242 Edition 2','STEP AP242 Edition 2''CAx-IF Rec.Pracs.---Representation and Presentation of Product Manufa
cturing Information (PMI)---4.0---2014-10-13','STEP AP242 Edition 2''CAx-IF Rec.Pracs.---Representation and Presentation of Product Manufa
cturing Information (PMI)---4.0---2014-10-13''CAx-IF Rec.Pracs.---3D Tessellated Geometry---0.4---2014-09-14','STEP AP242 Edition 2''CAx-IF Rec.Pracs.---Representation and Presentation of Product Manufa
cturing Information (PMI)---4.0---2014-10-13''CAx-IF Rec.Pracs.---3D Tessellated Geometry---0.4---2014-09-14''2;1','STEP AP242 Edition 2''CAx-IF Rec.Pracs.---Representation and Presentation of Product Manufa
cturing Information (PMI)---4.0---2014-10-13''CAx-IF Rec.Pracs.---3D Tessellated Geometry---0.4---2014-09-14''2;1''CAx-IF Rec.Pracs.---User Defined Attributes---1.5---2016-08-15'),'2;1');
/*name */
/*time_stamp */
/*author */
/*organization */
/*preprocessor_version */
/*originating_system */
/*authorisation */
FILE_NAME('/vol/tmp/translate-15952108022971386992/IR Receiver Standoff - IR Receiver Standoff.step','2026-03-26T22:34:59',(''),(''),'ST-DEVELOPER v20','ONSHAPE BY PTC INC, 1.212','  ');
FILE_SCHEMA(('AP242_MANAGED_MODEL_BASED_3D_ENGINEERING_MIM_LF { 1 0 10303 442 3 1 4 }'));
ENDSEC;
DATA;
#10=SHAPE_REPRESENTATION_RELATIONSHIP('','',#475,#11);
#11=ADVANCED_BREP_SHAPE_REPRESENTATION('',(#473),#785);
#12=ELLIPSE('',#500,0.00108239220029239,0.001);
#13=ELLIPSE('',#502,0.00108239220029239,0.001);
#14=ELLIPSE('',#505,0.00108239220029239,0.001);
#15=ELLIPSE('',#507,0.00108239220029239,0.001);
#16=ELLIPSE('',#510,0.00108239220029239,0.001);
#17=ELLIPSE('',#512,0.00108239220029239,0.001);
#18=ELLIPSE('',#515,0.00108239220029239,0.001);
#19=ELLIPSE('',#517,0.00108239220029239,0.001);
#20=CYLINDRICAL_SURFACE('',#499,0.001);
#21=CYLINDRICAL_SURFACE('',#501,0.001);
#22=CYLINDRICAL_SURFACE('',#503,0.001);
#23=CYLINDRICAL_SURFACE('',#504,0.001);
#24=CYLINDRICAL_SURFACE('',#506,0.001);
#25=CYLINDRICAL_SURFACE('',#508,0.001);
#26=CYLINDRICAL_SURFACE('',#509,0.001);
#27=CYLINDRICAL_SURFACE('',#511,0.001);
#28=CYLINDRICAL_SURFACE('',#513,0.001);
#29=CYLINDRICAL_SURFACE('',#514,0.001);
#30=CYLINDRICAL_SURFACE('',#516,0.001);
#31=CYLINDRICAL_SURFACE('',#518,0.001);
#32=CIRCLE('',#486,0.001);
#33=CIRCLE('',#487,0.001);
#34=CIRCLE('',#488,0.001);
#35=CIRCLE('',#489,0.001);
#36=CIRCLE('',#491,0.001);
#37=CIRCLE('',#492,0.001);
#38=CIRCLE('',#493,0.001);
#39=CIRCLE('',#494,0.001);
#40=ORIENTED_EDGE('',*,*,#168,.F.);
#41=ORIENTED_EDGE('',*,*,#169,.F.);
#42=ORIENTED_EDGE('',*,*,#170,.T.);
#43=ORIENTED_EDGE('',*,*,#171,.T.);
#44=ORIENTED_EDGE('',*,*,#172,.T.);
#45=ORIENTED_EDGE('',*,*,#173,.F.);
#46=ORIENTED_EDGE('',*,*,#174,.F.);
#47=ORIENTED_EDGE('',*,*,#169,.T.);
#48=ORIENTED_EDGE('',*,*,#175,.T.);
#49=ORIENTED_EDGE('',*,*,#176,.F.);
#50=ORIENTED_EDGE('',*,*,#177,.F.);
#51=ORIENTED_EDGE('',*,*,#173,.T.);
#52=ORIENTED_EDGE('',*,*,#178,.T.);
#53=ORIENTED_EDGE('',*,*,#179,.T.);
#54=ORIENTED_EDGE('',*,*,#180,.F.);
#55=ORIENTED_EDGE('',*,*,#181,.T.);
#56=ORIENTED_EDGE('',*,*,#182,.T.);
#57=ORIENTED_EDGE('',*,*,#183,.T.);
#58=ORIENTED_EDGE('',*,*,#184,.T.);
#59=ORIENTED_EDGE('',*,*,#185,.T.);
#60=ORIENTED_EDGE('',*,*,#186,.T.);
#61=ORIENTED_EDGE('',*,*,#187,.T.);
#62=ORIENTED_EDGE('',*,*,#188,.F.);
#63=ORIENTED_EDGE('',*,*,#189,.T.);
#64=ORIENTED_EDGE('',*,*,#190,.T.);
#65=ORIENTED_EDGE('',*,*,#191,.T.);
#66=ORIENTED_EDGE('',*,*,#192,.T.);
#67=ORIENTED_EDGE('',*,*,#193,.T.);
#68=ORIENTED_EDGE('',*,*,#194,.F.);
#69=ORIENTED_EDGE('',*,*,#195,.T.);
#70=ORIENTED_EDGE('',*,*,#196,.T.);
#71=ORIENTED_EDGE('',*,*,#197,.T.);
#72=ORIENTED_EDGE('',*,*,#198,.T.);
#73=ORIENTED_EDGE('',*,*,#199,.T.);
#74=ORIENTED_EDGE('',*,*,#200,.T.);
#75=ORIENTED_EDGE('',*,*,#201,.T.);
#76=ORIENTED_EDGE('',*,*,#202,.F.);
#77=ORIENTED_EDGE('',*,*,#171,.F.);
#78=ORIENTED_EDGE('',*,*,#203,.T.);
#79=ORIENTED_EDGE('',*,*,#176,.T.);
#80=ORIENTED_EDGE('',*,*,#180,.T.);
#81=ORIENTED_EDGE('',*,*,#204,.T.);
#82=ORIENTED_EDGE('',*,*,#188,.T.);
#83=ORIENTED_EDGE('',*,*,#205,.T.);
#84=ORIENTED_EDGE('',*,*,#192,.F.);
#85=ORIENTED_EDGE('',*,*,#206,.T.);
#86=ORIENTED_EDGE('',*,*,#198,.F.);
#87=ORIENTED_EDGE('',*,*,#207,.T.);
#88=ORIENTED_EDGE('',*,*,#170,.F.);
#89=ORIENTED_EDGE('',*,*,#174,.T.);
#90=ORIENTED_EDGE('',*,*,#177,.T.);
#91=ORIENTED_EDGE('',*,*,#203,.F.);
#92=ORIENTED_EDGE('',*,*,#208,.F.);
#93=ORIENTED_EDGE('',*,*,#209,.T.);
#94=ORIENTED_EDGE('',*,*,#184,.F.);
#95=ORIENTED_EDGE('',*,*,#210,.T.);
#96=ORIENTED_EDGE('',*,*,#211,.T.);
#97=ORIENTED_EDGE('',*,*,#212,.T.);
#98=ORIENTED_EDGE('',*,*,#194,.T.);
#99=ORIENTED_EDGE('',*,*,#213,.T.);
#100=ORIENTED_EDGE('',*,*,#168,.T.);
#101=ORIENTED_EDGE('',*,*,#202,.T.);
#102=ORIENTED_EDGE('',*,*,#175,.F.);
#103=ORIENTED_EDGE('',*,*,#172,.F.);
#104=ORIENTED_EDGE('',*,*,#214,.F.);
#105=ORIENTED_EDGE('',*,*,#215,.T.);
#106=ORIENTED_EDGE('',*,*,#208,.T.);
#107=ORIENTED_EDGE('',*,*,#216,.T.);
#108=ORIENTED_EDGE('',*,*,#211,.F.);
#109=ORIENTED_EDGE('',*,*,#217,.T.);
#110=ORIENTED_EDGE('',*,*,#218,.T.);
#111=ORIENTED_EDGE('',*,*,#219,.T.);
#112=ORIENTED_EDGE('',*,*,#178,.F.);
#113=ORIENTED_EDGE('',*,*,#220,.T.);
#114=ORIENTED_EDGE('',*,*,#218,.F.);
#115=ORIENTED_EDGE('',*,*,#221,.T.);
#116=ORIENTED_EDGE('',*,*,#214,.T.);
#117=ORIENTED_EDGE('',*,*,#222,.T.);
#118=ORIENTED_EDGE('',*,*,#190,.F.);
#119=ORIENTED_EDGE('',*,*,#223,.T.);
#120=ORIENTED_EDGE('',*,*,#212,.F.);
#121=ORIENTED_EDGE('',*,*,#219,.F.);
#122=ORIENTED_EDGE('',*,*,#224,.F.);
#123=ORIENTED_EDGE('',*,*,#195,.F.);
#124=ORIENTED_EDGE('',*,*,#207,.F.);
#125=ORIENTED_EDGE('',*,*,#197,.F.);
#126=ORIENTED_EDGE('',*,*,#225,.F.);
#127=ORIENTED_EDGE('',*,*,#181,.F.);
#128=ORIENTED_EDGE('',*,*,#224,.T.);
#129=ORIENTED_EDGE('',*,*,#220,.F.);
#130=ORIENTED_EDGE('',*,*,#225,.T.);
#131=ORIENTED_EDGE('',*,*,#196,.F.);
#132=ORIENTED_EDGE('',*,*,#204,.F.);
#133=ORIENTED_EDGE('',*,*,#179,.F.);
#134=ORIENTED_EDGE('',*,*,#226,.F.);
#135=ORIENTED_EDGE('',*,*,#189,.F.);
#136=ORIENTED_EDGE('',*,*,#210,.F.);
#137=ORIENTED_EDGE('',*,*,#183,.F.);
#138=ORIENTED_EDGE('',*,*,#227,.F.);
#139=ORIENTED_EDGE('',*,*,#217,.F.);
#140=ORIENTED_EDGE('',*,*,#226,.T.);
#141=ORIENTED_EDGE('',*,*,#221,.F.);
#142=ORIENTED_EDGE('',*,*,#227,.T.);
#143=ORIENTED_EDGE('',*,*,#182,.F.);
#144=ORIENTED_EDGE('',*,*,#206,.F.);
#145=ORIENTED_EDGE('',*,*,#191,.F.);
#146=ORIENTED_EDGE('',*,*,#228,.F.);
#147=ORIENTED_EDGE('',*,*,#199,.F.);
#148=ORIENTED_EDGE('',*,*,#213,.F.);
#149=ORIENTED_EDGE('',*,*,#201,.F.);
#150=ORIENTED_EDGE('',*,*,#229,.F.);
#151=ORIENTED_EDGE('',*,*,#216,.F.);
#152=ORIENTED_EDGE('',*,*,#228,.T.);
#153=ORIENTED_EDGE('',*,*,#222,.F.);
#154=ORIENTED_EDGE('',*,*,#229,.T.);
#155=ORIENTED_EDGE('',*,*,#200,.F.);
#156=ORIENTED_EDGE('',*,*,#209,.F.);
#157=ORIENTED_EDGE('',*,*,#215,.F.);
#158=ORIENTED_EDGE('',*,*,#230,.F.);
#159=ORIENTED_EDGE('',*,*,#185,.F.);
#160=ORIENTED_EDGE('',*,*,#205,.F.);
#161=ORIENTED_EDGE('',*,*,#187,.F.);
#162=ORIENTED_EDGE('',*,*,#231,.F.);
#163=ORIENTED_EDGE('',*,*,#193,.F.);
#164=ORIENTED_EDGE('',*,*,#230,.T.);
#165=ORIENTED_EDGE('',*,*,#223,.F.);
#166=ORIENTED_EDGE('',*,*,#231,.T.);
#167=ORIENTED_EDGE('',*,*,#186,.F.);
#168=EDGE_CURVE('',#232,#233,#272,.T.);
#169=EDGE_CURVE('',#234,#232,#273,.T.);
#170=EDGE_CURVE('',#234,#235,#274,.T.);
#171=EDGE_CURVE('',#235,#233,#275,.T.);
#172=EDGE_CURVE('',#232,#236,#276,.T.);
#173=EDGE_CURVE('',#237,#236,#277,.T.);
#174=EDGE_CURVE('',#234,#237,#278,.T.);
#175=EDGE_CURVE('',#236,#238,#279,.T.);
#176=EDGE_CURVE('',#239,#238,#280,.T.);
#177=EDGE_CURVE('',#237,#239,#281,.T.);
#178=EDGE_CURVE('',#240,#241,#282,.T.);
#179=EDGE_CURVE('',#241,#242,#283,.F.);
#180=EDGE_CURVE('',#243,#242,#284,.T.);
#181=EDGE_CURVE('',#243,#240,#285,.T.);
#182=EDGE_CURVE('',#244,#245,#286,.T.);
#183=EDGE_CURVE('',#245,#246,#287,.T.);
#184=EDGE_CURVE('',#246,#247,#288,.T.);
#185=EDGE_CURVE('',#247,#248,#289,.F.);
#186=EDGE_CURVE('',#248,#249,#290,.F.);
#187=EDGE_CURVE('',#249,#250,#291,.F.);
#188=EDGE_CURVE('',#251,#250,#292,.T.);
#189=EDGE_CURVE('',#251,#244,#293,.T.);
#190=EDGE_CURVE('',#252,#253,#294,.T.);
#191=EDGE_CURVE('',#253,#254,#295,.F.);
#192=EDGE_CURVE('',#254,#255,#296,.T.);
#193=EDGE_CURVE('',#255,#252,#297,.T.);
#194=EDGE_CURVE('',#256,#257,#298,.T.);
#195=EDGE_CURVE('',#256,#258,#299,.F.);
#196=EDGE_CURVE('',#258,#259,#300,.T.);
#197=EDGE_CURVE('',#259,#260,#301,.F.);
#198=EDGE_CURVE('',#260,#261,#302,.T.);
#199=EDGE_CURVE('',#261,#262,#303,.T.);
#200=EDGE_CURVE('',#262,#263,#304,.F.);
#201=EDGE_CURVE('',#263,#257,#305,.T.);
#202=EDGE_CURVE('',#233,#238,#306,.T.);
#203=EDGE_CURVE('',#235,#239,#307,.T.);
#204=EDGE_CURVE('',#242,#251,#32,.T.);
#205=EDGE_CURVE('',#250,#255,#33,.T.);
#206=EDGE_CURVE('',#254,#261,#34,.T.);
#207=EDGE_CURVE('',#260,#243,#35,.T.);
#208=EDGE_CURVE('',#264,#265,#308,.T.);
#209=EDGE_CURVE('',#264,#247,#36,.F.);
#210=EDGE_CURVE('',#246,#266,#37,.F.);
#211=EDGE_CURVE('',#266,#267,#309,.T.);
#212=EDGE_CURVE('',#267,#256,#38,.F.);
#213=EDGE_CURVE('',#257,#265,#39,.F.);
#214=EDGE_CURVE('',#268,#269,#310,.T.);
#215=EDGE_CURVE('',#268,#264,#311,.T.);
#216=EDGE_CURVE('',#265,#269,#312,.F.);
#217=EDGE_CURVE('',#266,#270,#313,.F.);
#218=EDGE_CURVE('',#270,#271,#314,.T.);
#219=EDGE_CURVE('',#271,#267,#315,.T.);
#220=EDGE_CURVE('',#240,#271,#316,.F.);
#221=EDGE_CURVE('',#270,#241,#317,.F.);
#222=EDGE_CURVE('',#269,#253,#318,.F.);
#223=EDGE_CURVE('',#252,#268,#319,.F.);
#224=EDGE_CURVE('',#258,#271,#12,.F.);
#225=EDGE_CURVE('',#240,#259,#13,.T.);
#226=EDGE_CURVE('',#244,#241,#14,.T.);
#227=EDGE_CURVE('',#270,#245,#15,.T.);
#228=EDGE_CURVE('',#262,#253,#16,.T.);
#229=EDGE_CURVE('',#269,#263,#17,.T.);
#230=EDGE_CURVE('',#248,#268,#18,.F.);
#231=EDGE_CURVE('',#252,#249,#19,.T.);
#232=VERTEX_POINT('',#656);
#233=VERTEX_POINT('',#657);
#234=VERTEX_POINT('',#659);
#235=VERTEX_POINT('',#661);
#236=VERTEX_POINT('',#665);
#237=VERTEX_POINT('',#667);
#238=VERTEX_POINT('',#671);
#239=VERTEX_POINT('',#673);
#240=VERTEX_POINT('',#677);
#241=VERTEX_POINT('',#678);
#242=VERTEX_POINT('',#680);
#243=VERTEX_POINT('',#682);
#244=VERTEX_POINT('',#686);
#245=VERTEX_POINT('',#687);
#246=VERTEX_POINT('',#689);
#247=VERTEX_POINT('',#691);
#248=VERTEX_POINT('',#693);
#249=VERTEX_POINT('',#695);
#250=VERTEX_POINT('',#697);
#251=VERTEX_POINT('',#699);
#252=VERTEX_POINT('',#703);
#253=VERTEX_POINT('',#704);
#254=VERTEX_POINT('',#706);
#255=VERTEX_POINT('',#708);
#256=VERTEX_POINT('',#712);
#257=VERTEX_POINT('',#713);
#258=VERTEX_POINT('',#715);
#259=VERTEX_POINT('',#717);
#260=VERTEX_POINT('',#719);
#261=VERTEX_POINT('',#721);
#262=VERTEX_POINT('',#723);
#263=VERTEX_POINT('',#725);
#264=VERTEX_POINT('',#737);
#265=VERTEX_POINT('',#738);
#266=VERTEX_POINT('',#741);
#267=VERTEX_POINT('',#743);
#268=VERTEX_POINT('',#748);
#269=VERTEX_POINT('',#749);
#270=VERTEX_POINT('',#754);
#271=VERTEX_POINT('',#756);
#272=LINE('',#655,#320);
#273=LINE('',#658,#321);
#274=LINE('',#660,#322);
#275=LINE('',#662,#323);
#276=LINE('',#664,#324);
#277=LINE('',#666,#325);
#278=LINE('',#668,#326);
#279=LINE('',#670,#327);
#280=LINE('',#672,#328);
#281=LINE('',#674,#329);
#282=LINE('',#676,#330);
#283=LINE('',#679,#331);
#284=LINE('',#681,#332);
#285=LINE('',#683,#333);
#286=LINE('',#685,#334);
#287=LINE('',#688,#335);
#288=LINE('',#690,#336);
#289=LINE('',#692,#337);
#290=LINE('',#694,#338);
#291=LINE('',#696,#339);
#292=LINE('',#698,#340);
#293=LINE('',#700,#341);
#294=LINE('',#702,#342);
#295=LINE('',#705,#343);
#296=LINE('',#707,#344);
#297=LINE('',#709,#345);
#298=LINE('',#711,#346);
#299=LINE('',#714,#347);
#300=LINE('',#716,#348);
#301=LINE('',#718,#349);
#302=LINE('',#720,#350);
#303=LINE('',#722,#351);
#304=LINE('',#724,#352);
#305=LINE('',#726,#353);
#306=LINE('',#728,#354);
#307=LINE('',#729,#355);
#308=LINE('',#736,#356);
#309=LINE('',#742,#357);
#310=LINE('',#747,#358);
#311=LINE('',#750,#359);
#312=LINE('',#751,#360);
#313=LINE('',#753,#361);
#314=LINE('',#755,#362);
#315=LINE('',#757,#363);
#316=LINE('',#759,#364);
#317=LINE('',#760,#365);
#318=LINE('',#762,#366);
#319=LINE('',#763,#367);
#320=VECTOR('',#523,1.);
#321=VECTOR('',#524,1.);
#322=VECTOR('',#525,1.);
#323=VECTOR('',#526,1.);
#324=VECTOR('',#529,1.);
#325=VECTOR('',#530,1.);
#326=VECTOR('',#531,1.);
#327=VECTOR('',#534,1.);
#328=VECTOR('',#535,1.);
#329=VECTOR('',#536,1.);
#330=VECTOR('',#539,1.);
#331=VECTOR('',#540,1.);
#332=VECTOR('',#541,1.);
#333=VECTOR('',#542,1.);
#334=VECTOR('',#545,1.);
#335=VECTOR('',#546,1.);
#336=VECTOR('',#547,1.);
#337=VECTOR('',#548,1.);
#338=VECTOR('',#549,1.);
#339=VECTOR('',#550,1.);
#340=VECTOR('',#551,1.);
#341=VECTOR('',#552,1.);
#342=VECTOR('',#555,1.);
#343=VECTOR('',#556,1.);
#344=VECTOR('',#557,1.);
#345=VECTOR('',#558,1.);
#346=VECTOR('',#561,1.);
#347=VECTOR('',#562,1.);
#348=VECTOR('',#563,1.);
#349=VECTOR('',#564,1.);
#350=VECTOR('',#565,1.);
#351=VECTOR('',#566,1.);
#352=VECTOR('',#567,1.);
#353=VECTOR('',#568,1.);
#354=VECTOR('',#571,1.);
#355=VECTOR('',#572,1.);
#356=VECTOR('',#585,1.);
#357=VECTOR('',#590,1.);
#358=VECTOR('',#597,1.);
#359=VECTOR('',#598,1.);
#360=VECTOR('',#599,1.);
#361=VECTOR('',#602,1.);
#362=VECTOR('',#603,1.);
#363=VECTOR('',#604,1.);
#364=VECTOR('',#607,1.);
#365=VECTOR('',#608,1.);
#366=VECTOR('',#611,1.);
#367=VECTOR('',#612,1.);
#368=EDGE_LOOP('',(#40,#41,#42,#43));
#369=EDGE_LOOP('',(#44,#45,#46,#47));
#370=EDGE_LOOP('',(#48,#49,#50,#51));
#371=EDGE_LOOP('',(#52,#53,#54,#55));
#372=EDGE_LOOP('',(#56,#57,#58,#59,#60,#61,#62,#63));
#373=EDGE_LOOP('',(#64,#65,#66,#67));
#374=EDGE_LOOP('',(#68,#69,#70,#71,#72,#73,#74,#75));
#375=EDGE_LOOP('',(#76,#77,#78,#79));
#376=EDGE_LOOP('',(#80,#81,#82,#83,#84,#85,#86,#87));
#377=EDGE_LOOP('',(#88,#89,#90,#91));
#378=EDGE_LOOP('',(#92,#93,#94,#95,#96,#97,#98,#99));
#379=EDGE_LOOP('',(#100,#101,#102,#103));
#380=EDGE_LOOP('',(#104,#105,#106,#107));
#381=EDGE_LOOP('',(#108,#109,#110,#111));
#382=EDGE_LOOP('',(#112,#113,#114,#115));
#383=EDGE_LOOP('',(#116,#117,#118,#119));
#384=EDGE_LOOP('',(#120,#121,#122,#123));
#385=EDGE_LOOP('',(#124,#125,#126,#127));
#386=EDGE_LOOP('',(#128,#129,#130,#131));
#387=EDGE_LOOP('',(#132,#133,#134,#135));
#388=EDGE_LOOP('',(#136,#137,#138,#139));
#389=EDGE_LOOP('',(#140,#141,#142,#143));
#390=EDGE_LOOP('',(#144,#145,#146,#147));
#391=EDGE_LOOP('',(#148,#149,#150,#151));
#392=EDGE_LOOP('',(#152,#153,#154,#155));
#393=EDGE_LOOP('',(#156,#157,#158,#159));
#394=EDGE_LOOP('',(#160,#161,#162,#163));
#395=EDGE_LOOP('',(#164,#165,#166,#167));
#396=FACE_BOUND('',#368,.T.);
#397=FACE_BOUND('',#369,.T.);
#398=FACE_BOUND('',#370,.T.);
#399=FACE_BOUND('',#371,.T.);
#400=FACE_BOUND('',#372,.T.);
#401=FACE_BOUND('',#373,.T.);
#402=FACE_BOUND('',#374,.T.);
#403=FACE_BOUND('',#375,.T.);
#404=FACE_BOUND('',#376,.T.);
#405=FACE_BOUND('',#377,.T.);
#406=FACE_BOUND('',#378,.T.);
#407=FACE_BOUND('',#379,.T.);
#408=FACE_BOUND('',#380,.T.);
#409=FACE_BOUND('',#381,.T.);
#410=FACE_BOUND('',#382,.T.);
#411=FACE_BOUND('',#383,.T.);
#412=FACE_BOUND('',#384,.T.);
#413=FACE_BOUND('',#385,.T.);
#414=FACE_BOUND('',#386,.T.);
#415=FACE_BOUND('',#387,.T.);
#416=FACE_BOUND('',#388,.T.);
#417=FACE_BOUND('',#389,.T.);
#418=FACE_BOUND('',#390,.T.);
#419=FACE_BOUND('',#391,.T.);
#420=FACE_BOUND('',#392,.T.);
#421=FACE_BOUND('',#393,.T.);
#422=FACE_BOUND('',#394,.T.);
#423=FACE_BOUND('',#395,.T.);
#424=PLANE('',#477);
#425=PLANE('',#478);
#426=PLANE('',#479);
#427=PLANE('',#480);
#428=PLANE('',#481);
#429=PLANE('',#482);
#430=PLANE('',#483);
#431=PLANE('',#484);
#432=PLANE('',#485);
#433=PLANE('',#490);
#434=PLANE('',#495);
#435=PLANE('',#496);
#436=PLANE('',#497);
#437=PLANE('',#498);
#438=ADVANCED_FACE('',(#396),#424,.T.);
#439=ADVANCED_FACE('',(#397),#425,.F.);
#440=ADVANCED_FACE('',(#398),#426,.F.);
#441=ADVANCED_FACE('',(#399),#427,.F.);
#442=ADVANCED_FACE('',(#400),#428,.F.);
#443=ADVANCED_FACE('',(#401),#429,.T.);
#444=ADVANCED_FACE('',(#402),#430,.T.);
#445=ADVANCED_FACE('',(#403),#431,.T.);
#446=ADVANCED_FACE('',(#404,#405),#432,.T.);
#447=ADVANCED_FACE('',(#406,#407),#433,.F.);
#448=ADVANCED_FACE('',(#408),#434,.F.);
#449=ADVANCED_FACE('',(#409),#435,.T.);
#450=ADVANCED_FACE('',(#410),#436,.F.);
#451=ADVANCED_FACE('',(#411),#437,.T.);
#452=ADVANCED_FACE('',(#412),#20,.T.);
#453=ADVANCED_FACE('',(#413),#21,.T.);
#454=ADVANCED_FACE('',(#414),#22,.T.);
#455=ADVANCED_FACE('',(#415),#23,.T.);
#456=ADVANCED_FACE('',(#416),#24,.T.);
#457=ADVANCED_FACE('',(#417),#25,.T.);
#458=ADVANCED_FACE('',(#418),#26,.T.);
#459=ADVANCED_FACE('',(#419),#27,.T.);
#460=ADVANCED_FACE('',(#420),#28,.T.);
#461=ADVANCED_FACE('',(#421),#29,.T.);
#462=ADVANCED_FACE('',(#422),#30,.T.);
#463=ADVANCED_FACE('',(#423),#31,.T.);
#464=CLOSED_SHELL('',(#438,#439,#440,#441,#442,#443,#444,#445,#446,#447,#448,#449,#450,#451,#452,#453,#454,#455,#456,#457,#458,#459,#460,#461,#462,#463));
#465=STYLED_ITEM('',(#466),#473);
#466=PRESENTATION_STYLE_ASSIGNMENT((#467));
#467=SURFACE_STYLE_USAGE(.BOTH.,#468);
#468=SURFACE_SIDE_STYLE('',(#469));
#469=SURFACE_STYLE_FILL_AREA(#470);
#470=FILL_AREA_STYLE('',(#471));
#471=FILL_AREA_STYLE_COLOUR('',#472);
#472=COLOUR_RGB('',0.615686274509804,0.811764705882353,0.929411764705882);
#473=MANIFOLD_SOLID_BREP('IR Receiver Standoff',#464);
#474=SHAPE_DEFINITION_REPRESENTATION(#790,#475);
#475=SHAPE_REPRESENTATION('IR Receiver Standoff',(#476),#785);
#476=AXIS2_PLACEMENT_3D('',#653,#519,#520);
#477=AXIS2_PLACEMENT_3D('',#654,#521,#522);
#478=AXIS2_PLACEMENT_3D('',#663,#527,#528);
#479=AXIS2_PLACEMENT_3D('',#669,#532,#533);
#480=AXIS2_PLACEMENT_3D('',#675,#537,#538);
#481=AXIS2_PLACEMENT_3D('',#684,#543,#544);
#482=AXIS2_PLACEMENT_3D('',#701,#553,#554);
#483=AXIS2_PLACEMENT_3D('',#710,#559,#560);
#484=AXIS2_PLACEMENT_3D('',#727,#569,#570);
#485=AXIS2_PLACEMENT_3D('',#730,#573,#574);
#486=AXIS2_PLACEMENT_3D('',#731,#575,#576);
#487=AXIS2_PLACEMENT_3D('',#732,#577,#578);
#488=AXIS2_PLACEMENT_3D('',#733,#579,#580);
#489=AXIS2_PLACEMENT_3D('',#734,#581,#582);
#490=AXIS2_PLACEMENT_3D('',#735,#583,#584);
#491=AXIS2_PLACEMENT_3D('',#739,#586,#587);
#492=AXIS2_PLACEMENT_3D('',#740,#588,#589);
#493=AXIS2_PLACEMENT_3D('',#744,#591,#592);
#494=AXIS2_PLACEMENT_3D('',#745,#593,#594);
#495=AXIS2_PLACEMENT_3D('',#746,#595,#596);
#496=AXIS2_PLACEMENT_3D('',#752,#600,#601);
#497=AXIS2_PLACEMENT_3D('',#758,#605,#606);
#498=AXIS2_PLACEMENT_3D('',#761,#609,#610);
#499=AXIS2_PLACEMENT_3D('',#764,#613,#614);
#500=AXIS2_PLACEMENT_3D('',#765,#615,#616);
#501=AXIS2_PLACEMENT_3D('',#766,#617,#618);
#502=AXIS2_PLACEMENT_3D('',#767,#619,#620);
#503=AXIS2_PLACEMENT_3D('',#768,#621,#622);
#504=AXIS2_PLACEMENT_3D('',#769,#623,#624);
#505=AXIS2_PLACEMENT_3D('',#770,#625,#626);
#506=AXIS2_PLACEMENT_3D('',#771,#627,#628);
#507=AXIS2_PLACEMENT_3D('',#772,#629,#630);
#508=AXIS2_PLACEMENT_3D('',#773,#631,#632);
#509=AXIS2_PLACEMENT_3D('',#774,#633,#634);
#510=AXIS2_PLACEMENT_3D('',#775,#635,#636);
#511=AXIS2_PLACEMENT_3D('',#776,#637,#638);
#512=AXIS2_PLACEMENT_3D('',#777,#639,#640);
#513=AXIS2_PLACEMENT_3D('',#778,#641,#642);
#514=AXIS2_PLACEMENT_3D('',#779,#643,#644);
#515=AXIS2_PLACEMENT_3D('',#780,#645,#646);
#516=AXIS2_PLACEMENT_3D('',#781,#647,#648);
#517=AXIS2_PLACEMENT_3D('',#782,#649,#650);
#518=AXIS2_PLACEMENT_3D('',#783,#651,#652);
#519=DIRECTION('',(0.,0.,1.));
#520=DIRECTION('',(1.,0.,0.));
#521=DIRECTION('',(1.0842021724855E-16,-1.,0.));
#522=DIRECTION('',(1.,1.0842021724855E-16,0.));
#523=DIRECTION('',(-1.,-1.0842021724855E-16,0.));
#524=DIRECTION('',(0.,0.,-1.));
#525=DIRECTION('',(-1.,-1.0842021724855E-16,0.));
#526=DIRECTION('',(0.,0.,-1.));
#527=DIRECTION('',(1.,4.33680868994203E-16,0.));
#528=DIRECTION('',(-4.33680868994203E-16,1.,0.));
#529=DIRECTION('',(4.33680868994203E-16,-1.,0.));
#530=DIRECTION('',(0.,0.,-1.));
#531=DIRECTION('',(4.33680868994203E-16,-1.,0.));
#532=DIRECTION('',(1.3010426069826E-16,-1.,0.));
#533=DIRECTION('',(1.,1.3010426069826E-16,0.));
#534=DIRECTION('',(-1.,-1.3010426069826E-16,0.));
#535=DIRECTION('',(0.,0.,-1.));
#536=DIRECTION('',(-1.,-1.3010426069826E-16,0.));
#537=DIRECTION('',(1.0842021724855E-16,-1.,0.));
#538=DIRECTION('',(1.,1.0842021724855E-16,0.));
#539=DIRECTION('',(-1.,-1.0842021724855E-16,0.));
#540=DIRECTION('',(0.,0.,-1.));
#541=DIRECTION('',(-1.,-1.0842021724855E-16,0.));
#542=DIRECTION('',(0.,0.,-1.));
#543=DIRECTION('',(1.,2.16840434497101E-16,0.));
#544=DIRECTION('',(-2.16840434497101E-16,1.,0.));
#545=DIRECTION('',(-1.53329341668337E-16,0.707106781186547,-0.707106781186548));
#546=DIRECTION('',(0.,0.,-1.));
#547=DIRECTION('',(2.16840434497101E-16,-1.,0.));
#548=DIRECTION('',(0.,0.,-1.));
#549=DIRECTION('',(1.53329341668337E-16,-0.707106781186547,-0.707106781186548));
#550=DIRECTION('',(0.,0.,-1.));
#551=DIRECTION('',(2.16840434497101E-16,-1.,0.));
#552=DIRECTION('',(0.,0.,-1.));
#553=DIRECTION('',(1.0842021724855E-16,-1.,0.));
#554=DIRECTION('',(1.,1.0842021724855E-16,0.));
#555=DIRECTION('',(1.,1.0842021724855E-16,0.));
#556=DIRECTION('',(0.,0.,-1.));
#557=DIRECTION('',(-1.,-1.0842021724855E-16,0.));
#558=DIRECTION('',(0.,0.,-1.));
#559=DIRECTION('',(1.,2.16840434497101E-16,0.));
#560=DIRECTION('',(-2.16840434497101E-16,1.,0.));
#561=DIRECTION('',(2.16840434497101E-16,-1.,0.));
#562=DIRECTION('',(0.,0.,-1.));
#563=DIRECTION('',(1.53329341668337E-16,-0.707106781186547,0.707106781186548));
#564=DIRECTION('',(0.,0.,-1.));
#565=DIRECTION('',(2.16840434497101E-16,-1.,0.));
#566=DIRECTION('',(0.,0.,-1.));
#567=DIRECTION('',(-1.53329341668337E-16,0.707106781186547,0.707106781186548));
#568=DIRECTION('',(0.,0.,-1.));
#569=DIRECTION('',(1.,4.33680868994203E-16,0.));
#570=DIRECTION('',(-4.33680868994203E-16,1.,0.));
#571=DIRECTION('',(4.33680868994203E-16,-1.,0.));
#572=DIRECTION('',(4.33680868994203E-16,-1.,0.));
#573=DIRECTION('',(0.,0.,1.));
#574=DIRECTION('',(1.,0.,0.));
#575=DIRECTION('',(0.,0.,1.));
#576=DIRECTION('',(1.,0.,0.));
#577=DIRECTION('',(0.,0.,1.));
#578=DIRECTION('',(1.,0.,0.));
#579=DIRECTION('',(0.,0.,1.));
#580=DIRECTION('',(1.,0.,0.));
#581=DIRECTION('',(0.,0.,1.));
#582=DIRECTION('',(1.,0.,0.));
#583=DIRECTION('',(0.,0.,1.));
#584=DIRECTION('',(1.,0.,0.));
#585=DIRECTION('',(1.,-1.0842021724855E-16,0.));
#586=DIRECTION('',(0.,0.,1.));
#587=DIRECTION('',(1.,0.,0.));
#588=DIRECTION('',(0.,0.,1.));
#589=DIRECTION('',(1.,0.,0.));
#590=DIRECTION('',(1.,1.0842021724855E-16,0.));
#591=DIRECTION('',(0.,0.,1.));
#592=DIRECTION('',(1.,0.,0.));
#593=DIRECTION('',(0.,0.,1.));
#594=DIRECTION('',(1.,0.,0.));
#595=DIRECTION('',(1.0842021724855E-16,1.,0.));
#596=DIRECTION('',(-1.,1.0842021724855E-16,0.));
#597=DIRECTION('',(1.,-1.0842021724855E-16,0.));
#598=DIRECTION('',(0.,0.,-1.));
#599=DIRECTION('',(0.,0.,-1.));
#600=DIRECTION('',(-1.0842021724855E-16,1.,0.));
#601=DIRECTION('',(-1.,-1.0842021724855E-16,0.));
#602=DIRECTION('',(0.,0.,-1.));
#603=DIRECTION('',(1.,1.0842021724855E-16,0.));
#604=DIRECTION('',(0.,0.,-1.));
#605=DIRECTION('',(7.66646708341688E-17,-0.707106781186548,-0.707106781186547));
#606=DIRECTION('',(-1.,-1.0842021724855E-16,0.));
#607=DIRECTION('',(1.53329341668337E-16,-0.707106781186547,0.707106781186548));
#608=DIRECTION('',(-1.53329341668337E-16,0.707106781186547,-0.707106781186548));
#609=DIRECTION('',(7.66646708341688E-17,-0.707106781186548,0.707106781186547));
#610=DIRECTION('',(1.,1.0842021724855E-16,0.));
#611=DIRECTION('',(1.53329341668337E-16,-0.707106781186547,-0.707106781186548));
#612=DIRECTION('',(-1.53329341668337E-16,0.707106781186547,0.707106781186548));
#613=DIRECTION('',(0.,0.,-1.));
#614=DIRECTION('',(-1.,0.,0.));
#615=DIRECTION('',(-8.2981241748888E-17,0.38268343236509,-0.923879532511287));
#616=DIRECTION('',(2.00334439252726E-16,-0.923879532511287,-0.38268343236509));
#617=DIRECTION('',(0.,0.,1.));
#618=DIRECTION('',(1.,0.,0.));
#619=DIRECTION('',(-8.2981241748888E-17,0.38268343236509,-0.923879532511287));
#620=DIRECTION('',(-2.00334439252726E-16,0.923879532511287,0.38268343236509));
#621=DIRECTION('',(-1.53329341668337E-16,0.707106781186547,-0.707106781186548));
#622=DIRECTION('',(0.,0.707106781186548,0.707106781186547));
#623=DIRECTION('',(0.,0.,-1.));
#624=DIRECTION('',(-1.,0.,0.));
#625=DIRECTION('',(-8.2981241748888E-17,0.38268343236509,-0.923879532511287));
#626=DIRECTION('',(-2.00334439252726E-16,0.923879532511287,0.38268343236509));
#627=DIRECTION('',(0.,0.,1.));
#628=DIRECTION('',(1.,0.,0.));
#629=DIRECTION('',(8.2981241748888E-17,-0.38268343236509,0.923879532511287));
#630=DIRECTION('',(-2.00334439252726E-16,0.923879532511287,0.38268343236509));
#631=DIRECTION('',(-1.53329341668337E-16,0.707106781186547,-0.707106781186548));
#632=DIRECTION('',(0.,0.707106781186548,0.707106781186547));
#633=DIRECTION('',(0.,0.,-1.));
#634=DIRECTION('',(-1.,0.,0.));
#635=DIRECTION('',(8.2981241748888E-17,-0.38268343236509,-0.923879532511287));
#636=DIRECTION('',(2.00334439252726E-16,-0.923879532511287,0.38268343236509));
#637=DIRECTION('',(0.,0.,1.));
#638=DIRECTION('',(1.,0.,0.));
#639=DIRECTION('',(-8.2981241748888E-17,0.38268343236509,0.923879532511287));
#640=DIRECTION('',(2.00334439252726E-16,-0.923879532511287,0.38268343236509));
#641=DIRECTION('',(1.53329341668337E-16,-0.707106781186547,-0.707106781186548));
#642=DIRECTION('',(0.,0.707106781186548,-0.707106781186547));
#643=DIRECTION('',(0.,0.,-1.));
#644=DIRECTION('',(-1.,0.,0.));
#645=DIRECTION('',(8.2981241748888E-17,-0.38268343236509,-0.923879532511287));
#646=DIRECTION('',(-2.00334439252726E-16,0.923879532511287,-0.38268343236509));
#647=DIRECTION('',(0.,0.,1.));
#648=DIRECTION('',(1.,0.,0.));
#649=DIRECTION('',(8.2981241748888E-17,-0.38268343236509,-0.923879532511287));
#650=DIRECTION('',(2.00334439252726E-16,-0.923879532511287,0.38268343236509));
#651=DIRECTION('',(1.53329341668337E-16,-0.707106781186547,-0.707106781186548));
#652=DIRECTION('',(0.,0.707106781186548,-0.707106781186547));
#653=CARTESIAN_POINT('',(0.,0.,0.));
#654=CARTESIAN_POINT('',(0.,0.0005,0.016));
#655=CARTESIAN_POINT('',(0.,0.0005,0.));
#656=CARTESIAN_POINT('',(0.0025,0.0005,0.));
#657=CARTESIAN_POINT('',(-0.0025,0.0005,0.));
#658=CARTESIAN_POINT('',(0.0025,0.0005,0.016));
#659=CARTESIAN_POINT('',(0.0025,0.0005,0.016));
#660=CARTESIAN_POINT('',(0.,0.0005,0.016));
#661=CARTESIAN_POINT('',(-0.0025,0.0005,0.016));
#662=CARTESIAN_POINT('',(-0.0025,0.0005,0.016));
#663=CARTESIAN_POINT('',(0.0025,-4.33680868994202E-19,0.016));
#664=CARTESIAN_POINT('',(0.0025,-4.33680868994202E-19,0.));
#665=CARTESIAN_POINT('',(0.0025,-0.0005,0.));
#666=CARTESIAN_POINT('',(0.0025,-0.0005,0.016));
#667=CARTESIAN_POINT('',(0.0025,-0.0005,0.016));
#668=CARTESIAN_POINT('',(0.0025,-4.33680868994202E-19,0.016));
#669=CARTESIAN_POINT('',(0.,-0.0005,0.016));
#670=CARTESIAN_POINT('',(0.,-0.0005,0.));
#671=CARTESIAN_POINT('',(-0.0025,-0.0005,0.));
#672=CARTESIAN_POINT('',(-0.0025,-0.0005,0.016));
#673=CARTESIAN_POINT('',(-0.0025,-0.0005,0.016));
#674=CARTESIAN_POINT('',(0.,-0.0005,0.016));
#675=CARTESIAN_POINT('',(0.,0.002,0.016));
#676=CARTESIAN_POINT('',(0.,0.002,0.0022));
#677=CARTESIAN_POINT('',(0.003,0.002,0.0022));
#678=CARTESIAN_POINT('',(-0.003,0.002,0.0022));
#679=CARTESIAN_POINT('',(-0.003,0.002,0.016));
#680=CARTESIAN_POINT('',(-0.003,0.002,0.016));
#681=CARTESIAN_POINT('',(0.,0.002,0.016));
#682=CARTESIAN_POINT('',(0.003,0.002,0.016));
#683=CARTESIAN_POINT('',(0.003,0.002,0.0022));
#684=CARTESIAN_POINT('',(-0.004,-1.95156391047391E-18,0.016));
#685=CARTESIAN_POINT('',(-0.004,-0.00660710678118655,0.00939289321881346));
#686=CARTESIAN_POINT('',(-0.004,0.001,0.0017857864376269));
#687=CARTESIAN_POINT('',(-0.004,0.002,0.000785786437626903));
#688=CARTESIAN_POINT('',(-0.004,0.002,0.));
#689=CARTESIAN_POINT('',(-0.004,0.002,0.));
#690=CARTESIAN_POINT('',(-0.004,-1.95156391047391E-18,0.));
#691=CARTESIAN_POINT('',(-0.004,-0.002,0.));
#692=CARTESIAN_POINT('',(-0.004,-0.002,0.016));
#693=CARTESIAN_POINT('',(-0.004,-0.002,0.000785786437626904));
#694=CARTESIAN_POINT('',(-0.004,0.00660710678118655,0.00939289321881346));
#695=CARTESIAN_POINT('',(-0.004,-0.001,0.0017857864376269));
#696=CARTESIAN_POINT('',(-0.004,-0.001,0.016));
#697=CARTESIAN_POINT('',(-0.004,-0.001,0.016));
#698=CARTESIAN_POINT('',(-0.004,-1.95156391047391E-18,0.016));
#699=CARTESIAN_POINT('',(-0.004,0.001,0.016));
#700=CARTESIAN_POINT('',(-0.004,0.001,0.016));
#701=CARTESIAN_POINT('',(8.67361737988404E-19,-0.002,0.016));
#702=CARTESIAN_POINT('',(0.004,-0.002,0.0022));
#703=CARTESIAN_POINT('',(-0.003,-0.002,0.0022));
#704=CARTESIAN_POINT('',(0.003,-0.002,0.0022));
#705=CARTESIAN_POINT('',(0.003,-0.002,0.016));
#706=CARTESIAN_POINT('',(0.003,-0.002,0.016));
#707=CARTESIAN_POINT('',(8.67361737988404E-19,-0.002,0.016));
#708=CARTESIAN_POINT('',(-0.003,-0.002,0.016));
#709=CARTESIAN_POINT('',(-0.003,-0.002,0.0022));
#710=CARTESIAN_POINT('',(0.004,-4.33680868994202E-19,0.016));
#711=CARTESIAN_POINT('',(0.004,-4.33680868994202E-19,0.));
#712=CARTESIAN_POINT('',(0.004,0.002,0.));
#713=CARTESIAN_POINT('',(0.004,-0.002,0.));
#714=CARTESIAN_POINT('',(0.004,0.002,0.016));
#715=CARTESIAN_POINT('',(0.004,0.002,0.000785786437626903));
#716=CARTESIAN_POINT('',(0.004,0.00129289321881345,0.00149289321881345));
#717=CARTESIAN_POINT('',(0.004,0.001,0.00178578643762691));
#718=CARTESIAN_POINT('',(0.004,0.001,0.016));
#719=CARTESIAN_POINT('',(0.004,0.001,0.016));
#720=CARTESIAN_POINT('',(0.004,-4.33680868994202E-19,0.016));
#721=CARTESIAN_POINT('',(0.004,-0.001,0.016));
#722=CARTESIAN_POINT('',(0.004,-0.001,0.016));
#723=CARTESIAN_POINT('',(0.004,-0.001,0.0017857864376269));
#724=CARTESIAN_POINT('',(0.004,-0.00229289321881345,0.000492893218813451));
#725=CARTESIAN_POINT('',(0.004,-0.002,0.000785786437626902));
#726=CARTESIAN_POINT('',(0.004,-0.002,0.));
#727=CARTESIAN_POINT('',(-0.0025,-1.19262238973405E-18,0.016));
#728=CARTESIAN_POINT('',(-0.0025,-1.19262238973405E-18,0.));
#729=CARTESIAN_POINT('',(-0.0025,-1.19262238973405E-18,0.016));
#730=CARTESIAN_POINT('',(0.,0.,0.016));
#731=CARTESIAN_POINT('',(-0.003,0.001,0.016));
#732=CARTESIAN_POINT('',(-0.003,-0.001,0.016));
#733=CARTESIAN_POINT('',(0.003,-0.001,0.016));
#734=CARTESIAN_POINT('',(0.003,0.001,0.016));
#735=CARTESIAN_POINT('',(0.,0.,0.));
#736=CARTESIAN_POINT('',(0.,-0.003,0.));
#737=CARTESIAN_POINT('',(-0.003,-0.003,0.));
#738=CARTESIAN_POINT('',(0.003,-0.003,0.));
#739=CARTESIAN_POINT('',(-0.003,-0.002,0.));
#740=CARTESIAN_POINT('',(-0.003,0.002,0.));
#741=CARTESIAN_POINT('',(-0.003,0.003,0.));
#742=CARTESIAN_POINT('',(0.,0.003,0.));
#743=CARTESIAN_POINT('',(0.003,0.003,0.));
#744=CARTESIAN_POINT('',(0.003,0.002,0.));
#745=CARTESIAN_POINT('',(0.003,-0.002,0.));
#746=CARTESIAN_POINT('',(0.,-0.003,0.0012));
#747=CARTESIAN_POINT('',(0.,-0.003,0.0012));
#748=CARTESIAN_POINT('',(-0.003,-0.003,0.0012));
#749=CARTESIAN_POINT('',(0.003,-0.003,0.0012));
#750=CARTESIAN_POINT('',(-0.003,-0.003,0.0012));
#751=CARTESIAN_POINT('',(0.003,-0.003,0.0012));
#752=CARTESIAN_POINT('',(0.,0.003,0.0012));
#753=CARTESIAN_POINT('',(-0.003,0.003,0.0012));
#754=CARTESIAN_POINT('',(-0.003,0.003,0.0012));
#755=CARTESIAN_POINT('',(0.,0.003,0.0012));
#756=CARTESIAN_POINT('',(0.003,0.003,0.0012));
#757=CARTESIAN_POINT('',(0.003,0.003,0.0012));
#758=CARTESIAN_POINT('',(0.,0.002,0.0022));
#759=CARTESIAN_POINT('',(0.003,0.003,0.0012));
#760=CARTESIAN_POINT('',(-0.003,0.002,0.0022));
#761=CARTESIAN_POINT('',(3.25260651745652E-19,-0.003,0.0012));
#762=CARTESIAN_POINT('',(0.003,-0.002,0.0022));
#763=CARTESIAN_POINT('',(-0.003,-0.003,0.0012));
#764=CARTESIAN_POINT('',(0.003,0.002,0.0012));
#765=CARTESIAN_POINT('',(0.003,0.002,0.000785786437626904));
#766=CARTESIAN_POINT('',(0.003,0.001,0.016));
#767=CARTESIAN_POINT('',(0.003,0.001,0.00178578643762691));
#768=CARTESIAN_POINT('',(0.003,-0.00660710678118655,0.00939289321881346));
#769=CARTESIAN_POINT('',(-0.003,0.001,0.016));
#770=CARTESIAN_POINT('',(-0.003,0.001,0.00178578643762691));
#771=CARTESIAN_POINT('',(-0.003,0.002,0.016));
#772=CARTESIAN_POINT('',(-0.003,0.002,0.000785786437626904));
#773=CARTESIAN_POINT('',(-0.003,-0.00660710678118655,0.00939289321881346));
#774=CARTESIAN_POINT('',(0.003,-0.001,0.016));
#775=CARTESIAN_POINT('',(0.003,-0.001,0.0017857864376269));
#776=CARTESIAN_POINT('',(0.003,-0.002,0.016));
#777=CARTESIAN_POINT('',(0.003,-0.002,0.000785786437626902));
#778=CARTESIAN_POINT('',(0.003,0.00660710678118655,0.00939289321881346));
#779=CARTESIAN_POINT('',(-0.003,-0.002,0.0012));
#780=CARTESIAN_POINT('',(-0.003,-0.002,0.000785786437626906));
#781=CARTESIAN_POINT('',(-0.003,-0.001,0.016));
#782=CARTESIAN_POINT('',(-0.003,-0.001,0.0017857864376269));
#783=CARTESIAN_POINT('',(-0.003,0.00660710678118655,0.00939289321881346));
#784=MECHANICAL_DESIGN_GEOMETRIC_PRESENTATION_REPRESENTATION('',(#465),#785);
#785=(
GEOMETRIC_REPRESENTATION_CONTEXT(3)
GLOBAL_UNCERTAINTY_ASSIGNED_CONTEXT((#786))
GLOBAL_UNIT_ASSIGNED_CONTEXT((#789,#788,#787))
REPRESENTATION_CONTEXT('IR Receiver Standoff','TOP_LEVEL_ASSEMBLY_PART')
);
#786=UNCERTAINTY_MEASURE_WITH_UNIT(LENGTH_MEASURE(1.E-08),#789,'DISTANCE_ACCURACY_VALUE','Maximum Tolerance applied to model');
#787=(
NAMED_UNIT(*)
SI_UNIT($,.STERADIAN.)
SOLID_ANGLE_UNIT()
);
#788=(
NAMED_UNIT(*)
PLANE_ANGLE_UNIT()
SI_UNIT($,.RADIAN.)
);
#789=(
LENGTH_UNIT()
NAMED_UNIT(*)
SI_UNIT($,.METRE.)
);
#790=PRODUCT_DEFINITION_SHAPE('','',#791);
#791=PRODUCT_DEFINITION('','',#793,#792);
#792=PRODUCT_DEFINITION_CONTEXT('',#799,'design');
#793=PRODUCT_DEFINITION_FORMATION_WITH_SPECIFIED_SOURCE('','',#795,.NOT_KNOWN.);
#794=PRODUCT_RELATED_PRODUCT_CATEGORY('','',(#795));
#795=PRODUCT('IR Receiver Standoff','IR Receiver Standoff','IR Receiver Standoff',(#797));
#796=PRODUCT_CATEGORY('','');
#797=PRODUCT_CONTEXT('',#799,'mechanical');
#798=APPLICATION_PROTOCOL_DEFINITION('international standard','ap242_managed_model_based_3d_engineering',2020,#799);
#799=APPLICATION_CONTEXT('managed model based 3d engineering');
ENDSEC;
END-ISO-10303-21;
